# xmcd
#
# Track frame offsets:
#	150
#	18411
#	32134
#	49615
#	65889
#	78263
#	93337
#	104110
#	117587
#	135583
#	154356
#	160697
#
# Disc length: 2380 seconds
#
# Revision: 0
# Processed by: cddbd v1.5.2PL0 Copyright (c) Steve Scherf et al.
# Submitted via: EasyCDDAExtractor 9.0.0.1
#
DISCID=a1094a0c
DTITLE=Spups - Ten dort nám nìkdo zblaf...
DYEAR=2008
DGENRE=HardRock
TTITLE0=Promìny èasu
TTITLE1=Song pro supy
TTITLE2=Cizí klid
TTITLE3=Pesimistická
TTITLE4=Ocas krysy
TTITLE5=Hlavolam
TTITLE6=Lovestory
TTITLE7=Pantomima
TTITLE8=Kluci øecký
TTITLE9=Tanec se zrcadlem
TTITLE10=Zvadlej kvìt
TTITLE11=Nahoru a dolu (bonus)
EXTD=
EXTT0=
EXTT1=
EXTT2=
EXTT3=
EXTT4=
EXTT5=
EXTT6=
EXTT7=
EXTT8=
EXTT9=
EXTT10=
EXTT11=
PLAYORDER=
